<?xml version="1.0" encoding="UTF-8"?><svg id="Capa_3" xmlns="http://www.w3.org/2000/svg" xmlns:xlink="http://www.w3.org/1999/xlink" viewBox="0 0 683.334 200.9546"><defs><style>.cls-1{letter-spacing:.011em;}.cls-2{fill:none;}.cls-3{fill:#d10d78;font-family:Blacksword, Blacksword;font-size:133.5216px;}.cls-4{fill:#fff;font-family:Impact, Impact;font-size:160.3103px;}.cls-5{letter-spacing:0em;}.cls-6{letter-spacing:-.007em;}.cls-7{clip-path:url(#clippath);}</style><clipPath id="clippath"><path class="cls-2" d="M-2,2.478v200.4766h687.334V2.478H-2ZM164.4468,86.6799c-13.887,10.1893-25.7112,19.5822-32.6035,25.9105l-.3511.0581v-15.401c8.9984-8.9903,20.7892-19.4032,32.709-28.8705l.2456-.0273v18.3303ZM238.3398,116.5478c-10.0418,4.8073-21.1118,9.4155-32.9546,13.7047v-16.5911c12.1506-4.9417,23.2379-10.1421,32.9546-15.4727v18.3591ZM337.5942,115.3849c-11.6216,5.6754-22.2549,10.0822-31.6235,13.0936v-6.4872c8.5984-2.718,19.2132-6.8533,31.6235-12.335v5.7286ZM391.6519,103.2133c15.5967-4.6111,28.8369-7.3015,37.2954-8.7529l.7483.4008c-2.3699,1.7989-4.2161,3.4495-5.5386,4.9523-13.5339,2.8374-24.379,5.4613-33.0549,7.9976.1095-1.6816.2933-3.2131.5498-4.5978ZM462.2881,133.5164c-.5496-.0748-1.1805-.2059-1.6543-.3978-3.9766-1.4697-10.1113-6.4863-10.1113-9.8721,0-1.7656.6436-3.7168,1.9189-5.832-18.1641,10.4033-30.8369,15.8408-37.7061,16.1768l-.0488.001c-.8965,0-1.6045,0-2.7676-.1406-3.5283-.665-9.9238-4.1533-9.9238-7.4014,0-5.9697,15.0957-20.2051,19.7227-24.4263l1.0732-.0493c-.4248.6547-.7427,1.2792-.9326,1.8676-.8096,2.5054-1.2129,6.106-1.2129,10.8022,0,5.376.3525,8.8457,1.0566,10.4111s2.0996,2.3486,4.1875,2.3486c1.9834,0,3.2744-.6133,3.875-1.8398.3074-.6281.5349-1.7892.6849-3.4664,7.7749-2.9758,18.473-8.2094,31.8385-15.5764v27.3946ZM509.7021,113.9878c-5.582,2.8926-10.9111,5.5479-15.8398,7.8916-5.1274,2.3955-9.2648,4.2693-12.8628,5.8241-2.1984-1.5119-3.9392-3.3068-5.2212-5.3852,3.6897-1.2993,9.0173-3.4088,14.1953-5.475,4.6368-1.871,9.5264-3.9943,14.5345-6.3016.064.2298.1323.4346.2057.6111.5742,1.3838,1.7734,2.0742,3.6016,2.0742.6923,0,1.2966-.1007,1.8282-.2845l-.4415,1.0452ZM586.9834,106.0079c-2.5605,2.1406-4.9456,4.1735-7.0566,6.017.334-.1953.6748-.3936,1.0215-.5928,1.8337-1.0903,3.8679-2.2681,6.0352-3.4946v5.4392c-4.677,2.6295-8.8965,5.1624-12.2676,7.3688-2.834,1.7158-5.4453,3.6885-7.8789,5.5625-4.1113,2.9502-5.7148,5.3594-5.4766,6.3574l-.4822.872c-1.6833-2.5417-2.9512-5.4354-3.7971-8.6865-.7324-2.8118-1.2284-6.5299-1.4934-11.1353,4.8611-5.4169,11.8861-12.116,19.259-18.3369,3.8447-3.2969,7.9844-6.5605,11.9648-9.4336l.1719-.0132v20.0759Z"/></clipPath></defs><text class="cls-3" transform="translate(0 131.6579) scale(1.652 1)"><tspan x="0" y="0">De</tspan><tspan class="cls-1" x="208.2912" y="0">s</tspan><tspan class="cls-5" x="247.5431" y="0">i</tspan><tspan class="cls-6" x="277.5847" y="0">g</tspan><tspan x="334.7329" y="0">n</tspan></text><text class="cls-4" transform="translate(111.0619 143.5202)"><tspan x="0" y="0">TThiago</tspan></text><g class="cls-7"><text class="cls-3" transform="translate(0 131.6579) scale(1.652 1)"><tspan x="0" y="0">De</tspan><tspan class="cls-1" x="208.2912" y="0">s</tspan><tspan class="cls-5" x="247.5431" y="0">i</tspan><tspan class="cls-6" x="277.5847" y="0">g</tspan><tspan x="334.7329" y="0">n</tspan></text></g></svg>